<svg xmlns="http://www.w3.org/2000/svg" xml:space="preserve" id="movie-review" x="0" y="0" enable-background="new 0 0 64 64" version="1.1" viewBox="0 0 64 64">
  <polygon fill="#da4453" points="11 46.5 7 50.5 7 58.5 1 58.5 3 52.5 1 46.5"></polygon>
  <polygon fill="#d3374e" points="57 50.5 53 50.5 53 46.5"></polygon>
  <polygon fill="#ffce54" points="17 56 15.5 57.4 15.9 59.5 14 58.5 12.1 59.5 12.5 57.4 11 56 13.1 55.7 14 53.8 14.9 55.7"></polygon>
  <path fill="#ed5565" d="M42.8,59.5l-0.3-2.1L44,56l-2.1-0.3L41,53.8l-0.9,1.9L38,56l1.5,1.5l-0.3,2.1l1.8-1L42.8,59.5z M51.8,59.5
				l-0.3-2.1L53,56l-2.1-0.3L50,53.8l-0.9,1.9L47,56l1.5,1.5l-0.3,2.1l1.8-1L51.8,59.5z M15.9,59.5l-0.4-2.1L17,56l-2.1-0.3L14,53.8
				l-0.9,1.9L11,56l1.5,1.5l-0.4,2.1l1.9-1L15.9,59.5z M24.9,59.5l-0.4-2.1L26,56l-2.1-0.3L23,53.8l-0.9,1.9L20,56l1.5,1.5l-0.4,2.1
				l1.9-1L24.9,59.5z M57,62.5H7v-4v-8h4h8.9H32h12.1H53h4v8V62.5z M30.1,59.5l1.9-1l1.8,1l-0.3-2.1L35,56l-2.1-0.3L32,53.8
				l-0.9,1.9L29,56l1.5,1.5L30.1,59.5z"></path>
  <polygon fill="#d3374e" points="11 46.5 11 50.5 7 50.5"></polygon>
  <polygon fill="#ffce54" points="26 56 24.5 57.4 24.9 59.5 23 58.5 21.1 59.5 21.5 57.4 20 56 22.1 55.7 23 53.8 23.9 55.7"></polygon>
  <polygon fill="#ffce54" points="44 56 42.5 57.4 42.8 59.5 41 58.5 39.2 59.5 39.5 57.4 38 56 40.1 55.7 41 53.8 41.9 55.7"></polygon>
  <polygon fill="#ffce54" points="35 56 33.5 57.4 33.8 59.5 32 58.5 30.1 59.5 30.5 57.4 29 56 31.1 55.7 32 53.8 32.9 55.7"></polygon>
  <polygon fill="#da4453" points="63 46.5 61 52.5 63 58.5 57 58.5 57 50.5 53 46.5"></polygon>
  <polygon fill="#ffce54" points="53 56 51.5 57.4 51.8 59.5 50 58.5 48.2 59.5 48.5 57.4 47 56 49.1 55.7 50 53.8 50.9 55.7"></polygon>
  <path fill="#ccd1d9" d="M55,27.5c0-12.7-10.3-23-23-23S9,14.8,9,27.5s10.3,23,23,23H19.9C11.6,46.1,6,37.5,6,27.5
				c0-14.4,11.6-26,26-26s26,11.6,26,26c0,10-5.6,18.6-13.9,23H32C44.7,50.5,55,40.2,55,27.5z"></path>
  <circle cx="32" cy="27.5" r="5" fill="#ccd1d9"></circle>
  <path fill="#656d78" d="M36 12.5c0 2.2-1.8 4-4 4s-4-1.8-4-4c0-.2 0-.3 0-.5 1.3-.3 2.6-.5 4-.5 1.4 0 2.7.2 4 .5C36 12.2 36 12.3 36 12.5zM43.4 16.3c1.9 1.9 3.2 4.3 4 6.9-.1.1-.3.2-.4.3-1.9 1.1-4.4.5-5.5-1.5-1.1-1.9-.4-4.4 1.5-5.5C43.1 16.5 43.3 16.4 43.4 16.3zM21 16.5c1.9 1.1 2.6 3.5 1.5 5.5-1.1 1.9-3.5 2.6-5.5 1.5-.1-.1-.3-.2-.4-.3.7-2.6 2.1-5 4-6.9C20.7 16.4 20.9 16.5 21 16.5zM36 43c-1.3.3-2.6.5-4 .5-1.4 0-2.7-.2-4-.5 0-.2 0-.3 0-.5 0-2.2 1.8-4 4-4s4 1.8 4 4C36 42.7 36 42.8 36 43zM22.5 33c1.1 1.9.5 4.4-1.5 5.5-.1.1-.3.2-.5.2-1.9-1.9-3.2-4.3-4-6.9.1-.1.3-.2.4-.3C18.9 30.4 21.4 31.1 22.5 33zM47 31.5c.1.1.3.2.4.3-.7 2.6-2.1 5-4 6.9-.1-.1-.3-.1-.4-.2-1.9-1.1-2.6-3.5-1.5-5.5C42.6 31.1 45.1 30.4 47 31.5z"></path>
  <g>
    <path fill="#545c66" d="M32 8.5c2 0 3.7 1.5 4 3.5-1.3-.3-2.6-.5-4-.5-1.4 0-2.7.2-4 .5C28.3 10 30 8.5 32 8.5zM15.6 18c1-1.8 3.2-2.5 5-1.7-1.9 1.9-3.2 4.3-4 6.9C15 22 14.5 19.8 15.6 18zM36 43c-.3 2-1.9 3.5-4 3.5S28.3 45 28 43c1.3.3 2.6.5 4 .5C33.4 43.5 34.7 43.3 36 43zM20.6 38.7c-1.8.8-4 .1-5-1.7s-.5-4 1-5.2C17.3 34.4 18.7 36.8 20.6 38.7zM48.5 18c1 1.8.5 4-1 5.2-.7-2.6-2.1-5-4-6.9C45.3 15.5 47.4 16.2 48.5 18zM47.4 31.8c1.6 1.2 2.1 3.4 1 5.2s-3.2 2.5-5 1.7C45.3 36.8 46.7 34.4 47.4 31.8z"></path>
  </g>
  <g>
    <path fill="#e6e9ed" d="M55,27.5c0,12.7-10.3,23-23,23S9,40.2,9,27.5s10.3-23,23-23S55,14.8,55,27.5z M47.4,23.2
				c1.6-1.2,2.1-3.4,1-5.2s-3.2-2.5-5-1.7c-0.1,0.1-0.3,0.1-0.4,0.2c-1.9,1.1-2.6,3.5-1.5,5.5c1.1,1.9,3.6,2.6,5.5,1.5
				C47.1,23.4,47.3,23.3,47.4,23.2z M48.5,37c1-1.8,0.5-4-1-5.2c-0.1-0.1-0.3-0.2-0.4-0.3c-1.9-1.1-4.4-0.5-5.5,1.5
				c-1.1,1.9-0.4,4.4,1.5,5.5c0.1,0.1,0.3,0.2,0.4,0.2C45.3,39.5,47.4,38.8,48.5,37z M36,42.5c0-2.2-1.8-4-4-4s-4,1.8-4,4
				c0,0.2,0,0.3,0,0.5c0.3,2,1.9,3.5,4,3.5s3.7-1.5,4-3.5C36,42.8,36,42.7,36,42.5z M36,12.5c0-0.2,0-0.3,0-0.5
				c-0.3-2-1.9-3.5-4-3.5S28.3,10,28,12c0,0.2,0,0.3,0,0.5c0,2.2,1.8,4,4,4S36,14.7,36,12.5z M37,27.5c0-2.8-2.2-5-5-5s-5,2.2-5,5
				s2.2,5,5,5S37,30.3,37,27.5z M22.5,22c1.1-1.9,0.5-4.4-1.5-5.5c-0.1-0.1-0.3-0.2-0.5-0.2c-1.8-0.8-4-0.1-5,1.7s-0.5,4,1,5.2
				c0.1,0.1,0.3,0.2,0.4,0.3C18.9,24.6,21.4,23.9,22.5,22z M21,38.5c1.9-1.1,2.6-3.5,1.5-5.5c-1.1-1.9-3.5-2.6-5.5-1.5
				c-0.1,0.1-0.3,0.2-0.4,0.3c-1.6,1.2-2.1,3.4-1,5.2s3.2,2.5,5,1.7C20.7,38.6,20.9,38.5,21,38.5z"></path>
  </g>
  <g>
    <path fill="#fff" d="M32,28.5c-0.6,0-1-0.4-1-1s0.4-1,1-1h0c0.6,0,1,0.4,1,1S32.6,28.5,32,28.5z"></path>
  </g>
</svg>
