<svg width="67" height="107" viewBox="0 0 67 107" xmlns="http://www.w3.org/2000/svg">
    <g fill="none" fill-rule="evenodd">
        <path d="M32.298 75.96c.522-4.2 1.887-7.722 4.513-10.685 1.132-1.277 1.713-2.806 2.34-4.331.116-.283.172-.672.542-.715.441-.051.573.364.715.665.458.973.672 2.002.478 3.073-.86 4.75-2.7 9.02-6.42 12.269-1.268 1.108-1.624 2.219-1.187 3.876.826 3.127 1.22 6.334.941 9.588-.043.51-.007 1.039-.304 1.521-.303-.215-.213-.48-.187-.698.465-3.945-.352-7.754-1.24-11.552-.83-3.553-1.911-7.05-2.429-10.673a3.53 3.53 0 0 0-.764-1.72c-1.345-1.65-2.434-3.484-4.19-4.83-1.762-1.354-2.517-3.428-3.073-5.527-.684-2.586-.828-5.266-1.341-7.882-.417-2.129-1.274-4.08-2.334-5.958-.178-.313-.585-.7-.194-1.023.343-.283.724.095 1.041.294 1.068.672 1.834 1.633 2.51 2.67 2.614 4.007 3.878 8.463 4.442 13.156.117.974.357 1.936.442 2.912.189 2.172 1.475 3.744 2.81 5.3.083.099.232.239.316.219.213-.05.158-.276.179-.441.128-1.013.086-2.02-.015-3.037-.312-3.14-.42-6.3-.848-9.431-.096-.703-.174-1.4-.823-1.857a.767.767 0 0 1-.194-.248c-.263-.451-.35-.92-.08-1.398.16-.28.425-.386.724-.273.524.197.843.672.773 1.151-.303 2.069.505 4.018.567 6.047.048 1.573.256 3.141.5 4.744.757-2.425 2.012-4.645 2.729-7.072.208-.705.196-1.496-.096-2.182-.85-1.993-1.557-4.049-2.939-5.793-1.952-2.463-2.662-5.382-2.85-8.45-.11-1.783-.062-3.584-.793-5.275-.094-.219-.217-.507.035-.674.245-.163.468.05.654.206.634.53 1.05 1.223 1.428 1.941 1.652 3.141 2.45 6.54 2.524 10.03.062 2.923 1.451 5.304 2.507 7.846.037.088.136.227.19.22.224-.03.204-.25.251-.409.39-1.318.656-2.667.709-4.035.155-4.027.48-8.064-.744-12.016-.347-1.121-.912-2.128-1.405-3.172-1.283-2.713-2.004-5.521-1.8-8.554.163-2.394-.024-4.77-.86-7.057-.08-.222-.247-.491.018-.668.231-.153.48.016.69.139.748.44 1.267 1.099 1.75 1.8 2.31 3.352 2.65 7.094 2.25 10.998-.157 1.534-.237 3.077-.33 4.617-.029.481-.07.982.332 1.552.116-1.19.225-2.247.32-3.307.247-2.784 1.446-5.349 1.872-8.091.196-1.258.211-2.447-.97-3.323-.36-.266-.413-.724-.37-1.16.063-.62.347-1.13 1.015-1.145.683-.015 1.062.52 1.02 1.118-.194 2.712.295 5.439-.826 8.131-1.413 3.39-1.368 7.064-1.313 10.69.002.13.029.353.096.375.225.072.262-.171.343-.304.594-.97.972-1.961.956-3.16-.059-4.606 1.16-8.957 2.965-13.151.844-1.96 2.247-3.558 3.725-5.08.233-.24.465-.675.841-.515.419.18.298.67.274 1.043-.248 3.82-1.325 7.453-2.538 11.05-.94 2.785-2.353 5.27-4.245 7.577-1.4 1.707-2.478 3.751-2.262 6.184.11 1.238.02 2.494.134 3.784 1.17-3.092 3.73-4.982 5.958-7.146 2.228-2.164 4.184-4.56 6.056-7.028.197-.26.373-.732.789-.537.395.184.183.624.122.951-.51 2.73-1.127 5.437-2.176 8.016-1.76 4.33-5.214 6.362-9.714 6.859-.735.081-1.235.267-1.322 1.044-.379 3.396-1.643 6.518-2.971 9.625-.788 1.842-1.502 3.714-1.81 5.708a4.39 4.39 0 0 0-.043 1.166c1.207-3.232 3.152-6.066 4.739-9.087.277-.528.098-1.11.2-1.657.105-.562.275-1.103.846-1.377.204-.097.437-.051.566.15.34.526.2 1.075.04 1.622-.172.583-.832.803-1.064 1.257-2 3.92-4.79 7.514-5.299 12.07-.157 1.408.262 2.786.553 4.154.283 1.337.635 2.659 1.033 4.296" fill="#525A48"/>
        <path d="M33.3 106C15.46 106 1 91.616 1 73.873V34.118C1 16.375 15.461 1.991 33.3 1.991c17.838 0 32.299 14.384 32.299 32.127v39.755c0 17.743-14.46 32.127-32.3 32.127z" stroke="#525A48" stroke-width="2"/>
    </g>
</svg>
